<svg id="visual" viewBox="0 0 900 600" width="900" height="600" xmlns="http://www.w3.org/2000/svg" xmlns:xlink="http://www.w3.org/1999/xlink" version="1.1"><g stroke-width="1" stroke-linejoin="bevel"><path d="M498 331L476 382L594 379Z" fill="#ff973a" stroke="#ff973a"></path><path d="M594 379L612 339L498 331Z" fill="#ff5f4b" stroke="#ff5f4b"></path><path d="M476 382L515 514L594 379Z" fill="#ff7c40" stroke="#ff7c40"></path><path d="M390 264L399 418L476 382Z" fill="#ff5f4b" stroke="#ff5f4b"></path><path d="M476 382L399 418L515 514Z" fill="#b100de" stroke="#b100de"></path><path d="M515 514L561 525L594 379Z" fill="#ff006c" stroke="#ff006c"></path><path d="M713 432L678 306L612 339Z" fill="#f0009d" stroke="#f0009d"></path><path d="M561 206L480 228L498 331Z" fill="#ff006c" stroke="#ff006c"></path><path d="M498 331L390 264L476 382Z" fill="#6600ff" stroke="#6600ff"></path><path d="M713 432L612 339L594 379Z" fill="#fb0082" stroke="#fb0082"></path><path d="M612 339L561 206L498 331Z" fill="#6600ff" stroke="#6600ff"></path><path d="M678 306L561 206L612 339Z" fill="#f0009d" stroke="#f0009d"></path><path d="M480 228L390 264L498 331Z" fill="#ff006c" stroke="#ff006c"></path><path d="M561 525L713 432L594 379Z" fill="#f0009d" stroke="#f0009d"></path><path d="M314 470L366 488L399 418Z" fill="#ff5f4b" stroke="#ff5f4b"></path><path d="M399 418L366 488L515 514Z" fill="#ff973a" stroke="#ff973a"></path><path d="M515 514L473 600L561 525Z" fill="#ff973a" stroke="#ff973a"></path><path d="M561 525L722 497L713 432Z" fill="#ff3d5a" stroke="#ff3d5a"></path><path d="M533 86L404 196L480 228Z" fill="#ff973a" stroke="#ff973a"></path><path d="M480 228L404 196L390 264Z" fill="#6600ff" stroke="#6600ff"></path><path d="M366 488L473 600L515 514Z" fill="#b100de" stroke="#b100de"></path><path d="M561 525L617 600L722 497Z" fill="#6600ff" stroke="#6600ff"></path><path d="M270 232L306 339L390 264Z" fill="#ff973a" stroke="#ff973a"></path><path d="M390 264L306 339L399 418Z" fill="#d900bc" stroke="#d900bc"></path><path d="M473 600L617 600L561 525Z" fill="#f0009d" stroke="#f0009d"></path><path d="M295 414L314 470L399 418Z" fill="#ff7c40" stroke="#ff7c40"></path><path d="M366 488L387 600L473 600Z" fill="#ff973a" stroke="#ff973a"></path><path d="M306 339L295 414L399 418Z" fill="#d900bc" stroke="#d900bc"></path><path d="M321 600L387 600L366 488Z" fill="#fb0082" stroke="#fb0082"></path><path d="M826 318L732 194L678 306Z" fill="#d900bc" stroke="#d900bc"></path><path d="M678 306L732 194L561 206Z" fill="#ff973a" stroke="#ff973a"></path><path d="M561 206L533 86L480 228Z" fill="#ff006c" stroke="#ff006c"></path><path d="M828 370L678 306L713 432Z" fill="#ff973a" stroke="#ff973a"></path><path d="M625 96L533 86L561 206Z" fill="#fcaf3c" stroke="#fcaf3c"></path><path d="M829 477L828 370L713 432Z" fill="#b100de" stroke="#b100de"></path><path d="M617 600L727 600L722 497Z" fill="#b100de" stroke="#b100de"></path><path d="M722 497L829 477L713 432Z" fill="#d900bc" stroke="#d900bc"></path><path d="M732 194L625 96L561 206Z" fill="#ff3d5a" stroke="#ff3d5a"></path><path d="M828 370L826 318L678 306Z" fill="#6600ff" stroke="#6600ff"></path><path d="M404 196L270 232L390 264Z" fill="#ff7c40" stroke="#ff7c40"></path><path d="M306 339L197 426L295 414Z" fill="#ff973a" stroke="#ff973a"></path><path d="M279 100L270 232L404 196Z" fill="#ff3d5a" stroke="#ff3d5a"></path><path d="M314 470L321 600L366 488Z" fill="#fb0082" stroke="#fb0082"></path><path d="M212 600L321 600L314 470Z" fill="#b100de" stroke="#b100de"></path><path d="M813 600L829 477L722 497Z" fill="#ff3d5a" stroke="#ff3d5a"></path><path d="M270 232L238 260L306 339Z" fill="#6600ff" stroke="#6600ff"></path><path d="M295 414L197 426L314 470Z" fill="#ff973a" stroke="#ff973a"></path><path d="M826 318L805 188L732 194Z" fill="#ff5f4b" stroke="#ff5f4b"></path><path d="M732 194L729 73L625 96Z" fill="#f0009d" stroke="#f0009d"></path><path d="M533 86L401 73L404 196Z" fill="#b100de" stroke="#b100de"></path><path d="M270 232L220 206L238 260Z" fill="#f0009d" stroke="#f0009d"></path><path d="M238 260L197 426L306 339Z" fill="#ff5f4b" stroke="#ff5f4b"></path><path d="M727 600L813 600L722 497Z" fill="#f0009d" stroke="#f0009d"></path><path d="M279 100L220 206L270 232Z" fill="#6600ff" stroke="#6600ff"></path><path d="M238 260L102 389L197 426Z" fill="#ff7c40" stroke="#ff7c40"></path><path d="M805 188L729 73L732 194Z" fill="#fcaf3c" stroke="#fcaf3c"></path><path d="M562 0L516 0L533 86Z" fill="#ff3d5a" stroke="#ff3d5a"></path><path d="M533 86L516 0L401 73Z" fill="#ff006c" stroke="#ff006c"></path><path d="M828 370L900 367L826 318Z" fill="#ff5f4b" stroke="#ff5f4b"></path><path d="M826 318L900 198L805 188Z" fill="#ff3d5a" stroke="#ff3d5a"></path><path d="M829 477L900 367L828 370Z" fill="#fb0082" stroke="#fb0082"></path><path d="M900 508L900 367L829 477Z" fill="#f0009d" stroke="#f0009d"></path><path d="M900 367L900 299L826 318Z" fill="#ff7c40" stroke="#ff7c40"></path><path d="M805 188L811 62L729 73Z" fill="#b100de" stroke="#b100de"></path><path d="M401 73L279 100L404 196Z" fill="#ff973a" stroke="#ff973a"></path><path d="M562 0L533 86L625 96Z" fill="#ff006c" stroke="#ff006c"></path><path d="M401 73L331 0L279 100Z" fill="#6600ff" stroke="#6600ff"></path><path d="M723 0L562 0L625 96Z" fill="#b100de" stroke="#b100de"></path><path d="M813 600L900 508L829 477Z" fill="#ff3d5a" stroke="#ff3d5a"></path><path d="M170 533L212 600L314 470Z" fill="#b100de" stroke="#b100de"></path><path d="M102 389L170 533L197 426Z" fill="#b100de" stroke="#b100de"></path><path d="M197 426L170 533L314 470Z" fill="#d900bc" stroke="#d900bc"></path><path d="M900 299L900 198L826 318Z" fill="#ff3d5a" stroke="#ff3d5a"></path><path d="M516 0L360 0L401 73Z" fill="#f0009d" stroke="#f0009d"></path><path d="M900 125L811 62L805 188Z" fill="#fb0082" stroke="#fb0082"></path><path d="M729 73L723 0L625 96Z" fill="#f0009d" stroke="#f0009d"></path><path d="M811 62L723 0L729 73Z" fill="#ff006c" stroke="#ff006c"></path><path d="M225 0L210 107L279 100Z" fill="#fcaf3c" stroke="#fcaf3c"></path><path d="M279 100L210 107L220 206Z" fill="#d900bc" stroke="#d900bc"></path><path d="M74 330L102 389L238 260Z" fill="#ff006c" stroke="#ff006c"></path><path d="M813 600L900 600L900 508Z" fill="#6600ff" stroke="#6600ff"></path><path d="M360 0L331 0L401 73Z" fill="#d900bc" stroke="#d900bc"></path><path d="M74 330L238 260L220 206Z" fill="#fcaf3c" stroke="#fcaf3c"></path><path d="M900 198L900 125L805 188Z" fill="#f0009d" stroke="#f0009d"></path><path d="M62 176L74 330L220 206Z" fill="#fb0082" stroke="#fb0082"></path><path d="M75 538L119 600L170 533Z" fill="#b100de" stroke="#b100de"></path><path d="M75 538L170 533L102 389Z" fill="#ff7c40" stroke="#ff7c40"></path><path d="M170 533L119 600L212 600Z" fill="#ff3d5a" stroke="#ff3d5a"></path><path d="M900 0L839 0L811 62Z" fill="#ff3d5a" stroke="#ff3d5a"></path><path d="M811 62L839 0L723 0Z" fill="#fb0082" stroke="#fb0082"></path><path d="M0 496L75 538L102 389Z" fill="#ff7c40" stroke="#ff7c40"></path><path d="M331 0L225 0L279 100Z" fill="#b100de" stroke="#b100de"></path><path d="M210 107L62 176L220 206Z" fill="#ff006c" stroke="#ff006c"></path><path d="M111 73L62 176L210 107Z" fill="#ff006c" stroke="#ff006c"></path><path d="M74 330L0 362L102 389Z" fill="#fcaf3c" stroke="#fcaf3c"></path><path d="M225 0L111 73L210 107Z" fill="#d900bc" stroke="#d900bc"></path><path d="M900 125L900 0L811 62Z" fill="#fcaf3c" stroke="#fcaf3c"></path><path d="M0 286L0 362L74 330Z" fill="#f0009d" stroke="#f0009d"></path><path d="M0 210L0 286L62 176Z" fill="#ff3d5a" stroke="#ff3d5a"></path><path d="M62 176L0 286L74 330Z" fill="#ff006c" stroke="#ff006c"></path><path d="M0 362L0 496L102 389Z" fill="#fb0082" stroke="#fb0082"></path><path d="M75 538L0 600L119 600Z" fill="#ff973a" stroke="#ff973a"></path><path d="M0 111L0 210L62 176Z" fill="#ff973a" stroke="#ff973a"></path><path d="M0 496L0 600L75 538Z" fill="#ff5f4b" stroke="#ff5f4b"></path><path d="M225 0L78 0L111 73Z" fill="#ff973a" stroke="#ff973a"></path><path d="M111 73L0 111L62 176Z" fill="#ff973a" stroke="#ff973a"></path><path d="M78 0L0 111L111 73Z" fill="#b100de" stroke="#b100de"></path><path d="M78 0L0 0L0 111Z" fill="#ff5f4b" stroke="#ff5f4b"></path></g></svg>